<svg xmlns="http://www.w3.org/2000/svg" width="27" height="26" viewBox="0 0 27 26"><g><g><g><g><path fill="#cdcdcd" d="M21.138 17.412c0 .236-.159.394-.713.394h-2.138c-1.188 0-1.426-.63-2.376-1.576-.872-.867-1.347-.236-1.347 1.024a.6.6 0 0 1-.158.394.607.607 0 0 1-.396.158c-1.268 0-3.09.157-4.91-1.734-1.823-1.97-3.803-5.83-3.803-6.223 0-.237.238-.316.555-.316h2.06c.395 0 .712.237.791.63.713 1.498 2.297 4.413 2.693 2.758.238-.945.317-3.151-.713-3.309-.554-.079.475-.709 1.98-.709.396 0 .792.079 1.188.158.238 0 .475.157.634.315.158.157.237.394.158.63 0 1.891-.237 3.073.238 3.388.475.315 1.742-1.655 2.376-3.152.158-.393.238-.709.713-.709h2.614c1.425 0-.159 1.891-1.347 3.388-.95 1.182-.871 1.182.238 2.206.792.71 1.742 1.733 1.663 2.285zM.07 13c0 7.17 5.94 12.92 13.385 13 7.366.078 13.465-5.595 13.544-12.764C27.079 6.067 21.217.158 13.851.001 6.327-.078.15 5.75.07 13z"/></g></g></g></g></svg>