<svg xmlns="http://www.w3.org/2000/svg" width="30" height="36" viewBox="0 0 30 36"><g><g><g><path fill="#00b2ff" d="M2.34 10.873a2.066 2.066 0 0 1 0-2.939c.818-.81 2.15-.81 2.968 0l1.608 1.592a14.774 14.774 0 0 1 5.593-2.341V5.119H11.11c-.387 0-.7-.31-.7-.693V2.625a2.09 2.09 0 0 1 2.1-2.078h5.596a2.09 2.09 0 0 1 2.1 2.078v1.8a.696.696 0 0 1-.7.694h-1.4v2.066A14.772 14.772 0 0 1 23.7 9.526l1.609-1.592c.818-.81 2.149-.81 2.968 0 .818.81.818 2.128 0 2.938l-1.507 1.492A14.44 14.44 0 0 1 30 21.465c0 8.02-6.591 14.546-14.692 14.546-8.101 0-14.692-6.525-14.692-14.546a14.44 14.44 0 0 1 3.23-9.101zm1.979-1.96a.706.706 0 0 0-.99 0 .69.69 0 0 0 0 .98l1.446 1.431a14.84 14.84 0 0 1 1.023-.946zm14.487-6.288a.697.697 0 0 0-.7-.693H12.51c-.386 0-.7.31-.7.693v1.108h6.997zm-4.898 2.494v1.866a15.203 15.203 0 0 1 2.799 0V5.119zm13.378 3.795a.706.706 0 0 0-.99 0l-1.478 1.464c.355.3.697.615 1.022.946l1.446-1.431a.689.689 0 0 0 0-.98zM15.308 34.626c7.33 0 13.293-5.904 13.293-13.16 0-3.202-1.174-6.286-3.305-8.686a13.352 13.352 0 0 0-9.988-4.475 13.354 13.354 0 0 0-8.041 2.68c-.705.53-1.36 1.134-1.947 1.795a13.07 13.07 0 0 0-3.305 8.685c0 7.257 5.963 13.16 13.293 13.16z"/></g><g><path fill="#00b2ff" d="M15.307 23.543a2.09 2.09 0 0 1-2.099-2.078c0-.903.585-1.673 1.4-1.959V14.54c0-.383.313-.693.7-.693.386 0 .699.31.699.693v4.967a2.083 2.083 0 0 1 1.4 1.96 2.09 2.09 0 0 1-2.1 2.077zm0-2.77c-.386 0-.7.31-.7.692 0 .382.314.693.7.693.386 0 .7-.31.7-.693a.697.697 0 0 0-.7-.692z"/></g><g><path fill="#00b2ff" d="M7.855 14.158c.01-.013.021-.026.034-.038l.04-.037a10.555 10.555 0 0 1 4.41-2.584.7.7 0 0 1 .87.468.692.692 0 0 1-.473.86 9.146 9.146 0 0 0-3.342 1.804l.472.467c.273.27.273.71 0 .98a.7.7 0 0 1-.99 0l-.473-.468a8.874 8.874 0 0 0-2.164 5.163h.673c.386 0 .7.31.7.692a.696.696 0 0 1-.7.693h-.673a8.873 8.873 0 0 0 2.164 5.163l.473-.468a.705.705 0 0 1 .99 0c.273.27.273.709 0 .98l-.473.468a9.06 9.06 0 0 0 5.215 2.143v-.667c0-.382.313-.693.7-.693.386 0 .7.31.7.693v.666a9.058 9.058 0 0 0 5.214-2.142l-.473-.469a.688.688 0 0 1 0-.98.705.705 0 0 1 .99 0l.473.469a8.873 8.873 0 0 0 2.164-5.163h-.673c-.386 0-.7-.31-.7-.693 0-.382.314-.692.7-.692h.673a8.874 8.874 0 0 0-2.164-5.163l-.473.468a.7.7 0 0 1-.99 0 .688.688 0 0 1 0-.98l.472-.467a9.142 9.142 0 0 0-3.341-1.804.692.692 0 0 1-.473-.86.7.7 0 0 1 .869-.468 10.552 10.552 0 0 1 4.408 2.583.692.692 0 0 1 .042.038l.034.037a10.266 10.266 0 0 1 3.042 7.308c0 2.755-1.08 5.347-3.041 7.308-.011.012-.022.025-.035.037l-.037.034a10.477 10.477 0 0 1-7.381 3.011 10.476 10.476 0 0 1-7.382-3.01l-.037-.035-.034-.036a10.266 10.266 0 0 1-3.042-7.309c0-2.754 1.08-5.347 3.042-7.307z"/></g><g><path fill="#00b2ff" d="M15.308 12.46c-.386 0-.7-.31-.7-.692 0-.382.314-.693.7-.693.386 0 .7.31.7.693a.696.696 0 0 1-.7.693z"/></g></g></g></svg>