<svg xmlns="http://www.w3.org/2000/svg" width="27" height="26" viewBox="0 0 27 26"><g><g><g><g><path fill="#cdcdcd" d="M13.848 10.96c1.016 0 1.806-.836 1.787-1.746.019-.91-.753-1.764-1.768-1.764-.978 0-1.787.78-1.787 1.746 0 .965.79 1.764 1.768 1.764z"/></g><g><path fill="#cdcdcd" d="M26.871 13c0 7.168-5.887 13-13.165 13C6.446 26 .54 20.187.54 13 .54 5.83 6.446 0 13.706 0 20.984 0 26.89 5.831 26.87 13zM9.55 9.193c0 2.321 1.9 4.234 4.27 4.271 2.407.037 4.382-1.876 4.382-4.253.019-2.358-1.938-4.29-4.307-4.29-2.408 0-4.345 1.913-4.345 4.272zm9.178 5.571a1.913 1.913 0 0 0-.075-.315c-.263-.725-1.147-1.04-1.824-.65-.414.222-.809.427-1.26.575-.47.149-.94.242-1.411.26-.96.056-1.88-.13-2.746-.557a3.46 3.46 0 0 1-.451-.241c-.79-.502-1.844 0-1.938.928-.056.502.15.91.583 1.189.734.446 1.505.78 2.351.984.02 0 .057.019.076.019.075.018.075.018.019.074l-1.392 1.374-.94.929c-.358.353-.47.78-.32 1.263.15.483.489.761.996.854.038 0 .057.019.094.019h.245c.113-.02.245-.038.357-.093.17-.075.301-.168.433-.298l2.295-2.265c.056-.056.056-.056.112 0l2.276 2.247c.226.204.47.353.771.39 0 .019.019.019.038.019h.244c.15-.038.301-.056.433-.13.79-.372.96-1.393.339-2.006l-1.317-1.3-1.034-1.022c-.057-.055-.057-.055.018-.074a8.55 8.55 0 0 0 1.787-.65c.226-.111.451-.241.658-.371.32-.205.508-.502.565-.873 0-.037.018-.056.018-.093v-.186z"/></g></g></g></g></svg>