<svg xmlns="http://www.w3.org/2000/svg" xmlns:xlink="http://www.w3.org/1999/xlink"><symbol id="icon-class" viewBox="0 0 27 26"><g><g><g><g><path fill="#cdcdcd" d="M13.848 10.96c1.016 0 1.806-.836 1.787-1.746.019-.91-.753-1.764-1.768-1.764-.978 0-1.787.78-1.787 1.746 0 .965.79 1.764 1.768 1.764z"/></g><g><path fill="#cdcdcd" d="M26.871 13c0 7.168-5.887 13-13.165 13C6.446 26 .54 20.187.54 13 .54 5.83 6.446 0 13.706 0 20.984 0 26.89 5.831 26.87 13zM9.55 9.193c0 2.321 1.9 4.234 4.27 4.271 2.407.037 4.382-1.876 4.382-4.253.019-2.358-1.938-4.29-4.307-4.29-2.408 0-4.345 1.913-4.345 4.272zm9.178 5.571a1.913 1.913 0 0 0-.075-.315c-.263-.725-1.147-1.04-1.824-.65-.414.222-.809.427-1.26.575-.47.149-.94.242-1.411.26-.96.056-1.88-.13-2.746-.557a3.46 3.46 0 0 1-.451-.241c-.79-.502-1.844 0-1.938.928-.056.502.15.91.583 1.189.734.446 1.505.78 2.351.984.02 0 .057.019.076.019.075.018.075.018.019.074l-1.392 1.374-.94.929c-.358.353-.47.78-.32 1.263.15.483.489.761.996.854.038 0 .057.019.094.019h.245c.113-.02.245-.038.357-.093.17-.075.301-.168.433-.298l2.295-2.265c.056-.056.056-.056.112 0l2.276 2.247c.226.204.47.353.771.39 0 .019.019.019.038.019h.244c.15-.038.301-.056.433-.13.79-.372.96-1.393.339-2.006l-1.317-1.3-1.034-1.022c-.057-.055-.057-.055.018-.074a8.55 8.55 0 0 0 1.787-.65c.226-.111.451-.241.658-.371.32-.205.508-.502.565-.873 0-.037.018-.056.018-.093v-.186z"/></g></g></g></g></symbol><symbol id="icon-clock" viewBox="0 0 30 36"><g><g><g><path fill="#00b2ff" d="M2.34 10.873a2.066 2.066 0 0 1 0-2.939c.818-.81 2.15-.81 2.968 0l1.608 1.592a14.774 14.774 0 0 1 5.593-2.341V5.119H11.11c-.387 0-.7-.31-.7-.693V2.625a2.09 2.09 0 0 1 2.1-2.078h5.596a2.09 2.09 0 0 1 2.1 2.078v1.8a.696.696 0 0 1-.7.694h-1.4v2.066A14.772 14.772 0 0 1 23.7 9.526l1.609-1.592c.818-.81 2.149-.81 2.968 0 .818.81.818 2.128 0 2.938l-1.507 1.492A14.44 14.44 0 0 1 30 21.465c0 8.02-6.591 14.546-14.692 14.546-8.101 0-14.692-6.525-14.692-14.546a14.44 14.44 0 0 1 3.23-9.101zm1.979-1.96a.706.706 0 0 0-.99 0 .69.69 0 0 0 0 .98l1.446 1.431a14.84 14.84 0 0 1 1.023-.946zm14.487-6.288a.697.697 0 0 0-.7-.693H12.51c-.386 0-.7.31-.7.693v1.108h6.997zm-4.898 2.494v1.866a15.203 15.203 0 0 1 2.799 0V5.119zm13.378 3.795a.706.706 0 0 0-.99 0l-1.478 1.464c.355.3.697.615 1.022.946l1.446-1.431a.689.689 0 0 0 0-.98zM15.308 34.626c7.33 0 13.293-5.904 13.293-13.16 0-3.202-1.174-6.286-3.305-8.686a13.352 13.352 0 0 0-9.988-4.475 13.354 13.354 0 0 0-8.041 2.68c-.705.53-1.36 1.134-1.947 1.795a13.07 13.07 0 0 0-3.305 8.685c0 7.257 5.963 13.16 13.293 13.16z"/></g><g><path fill="#00b2ff" d="M15.307 23.543a2.09 2.09 0 0 1-2.099-2.078c0-.903.585-1.673 1.4-1.959V14.54c0-.383.313-.693.7-.693.386 0 .699.31.699.693v4.967a2.083 2.083 0 0 1 1.4 1.96 2.09 2.09 0 0 1-2.1 2.077zm0-2.77c-.386 0-.7.31-.7.692 0 .382.314.693.7.693.386 0 .7-.31.7-.693a.697.697 0 0 0-.7-.692z"/></g><g><path fill="#00b2ff" d="M7.855 14.158c.01-.013.021-.026.034-.038l.04-.037a10.555 10.555 0 0 1 4.41-2.584.7.7 0 0 1 .87.468.692.692 0 0 1-.473.86 9.146 9.146 0 0 0-3.342 1.804l.472.467c.273.27.273.71 0 .98a.7.7 0 0 1-.99 0l-.473-.468a8.874 8.874 0 0 0-2.164 5.163h.673c.386 0 .7.31.7.692a.696.696 0 0 1-.7.693h-.673a8.873 8.873 0 0 0 2.164 5.163l.473-.468a.705.705 0 0 1 .99 0c.273.27.273.709 0 .98l-.473.468a9.06 9.06 0 0 0 5.215 2.143v-.667c0-.382.313-.693.7-.693.386 0 .7.31.7.693v.666a9.058 9.058 0 0 0 5.214-2.142l-.473-.469a.688.688 0 0 1 0-.98.705.705 0 0 1 .99 0l.473.469a8.873 8.873 0 0 0 2.164-5.163h-.673c-.386 0-.7-.31-.7-.693 0-.382.314-.692.7-.692h.673a8.874 8.874 0 0 0-2.164-5.163l-.473.468a.7.7 0 0 1-.99 0 .688.688 0 0 1 0-.98l.472-.467a9.142 9.142 0 0 0-3.341-1.804.692.692 0 0 1-.473-.86.7.7 0 0 1 .869-.468 10.552 10.552 0 0 1 4.408 2.583.692.692 0 0 1 .042.038l.034.037a10.266 10.266 0 0 1 3.042 7.308c0 2.755-1.08 5.347-3.041 7.308-.011.012-.022.025-.035.037l-.037.034a10.477 10.477 0 0 1-7.381 3.011 10.476 10.476 0 0 1-7.382-3.01l-.037-.035-.034-.036a10.266 10.266 0 0 1-3.042-7.309c0-2.754 1.08-5.347 3.042-7.307z"/></g><g><path fill="#00b2ff" d="M15.308 12.46c-.386 0-.7-.31-.7-.692 0-.382.314-.693.7-.693.386 0 .7.31.7.693a.696.696 0 0 1-.7.693z"/></g></g></g></symbol><symbol id="icon-dollar" viewBox="0 0 35 35"><g><g><g><g><g><path fill="#00b2ff" d="M11.067 8.58a.689.689 0 0 0-.483-.2.689.689 0 0 0-.484.2.69.69 0 0 0-.2.484c0 .18.073.356.2.483s.304.2.484.2.356-.073.483-.2a.69.69 0 0 0 .2-.483.689.689 0 0 0-.2-.484z"/></g></g></g><g><g><g><path fill="#00b2ff" d="M34.8 2.859c.128.128.2.302.2.483L34.994 14.9a3.4 3.4 0 0 1-1.002 2.417L17.31 34a3.41 3.41 0 0 1-2.419 1 3.41 3.41 0 0 1-2.419-1L1.002 22.526A3.399 3.399 0 0 1 0 20.107c0-.914.356-1.773 1.002-2.419l7.369-7.37a.684.684 0 1 1 .966.967l-7.368 7.37a2.04 2.04 0 0 0-.602 1.452c0 .549.214 1.065.602 1.452L13.44 33.033a2.04 2.04 0 0 0 1.452.601 2.04 2.04 0 0 0 1.452-.601l16.681-16.684a2.04 2.04 0 0 0 .602-1.45l.006-11.274-.645-.646-2.537 2.537c.641 1.076.5 2.491-.425 3.416a2.791 2.791 0 0 1-1.98.819 2.792 2.792 0 0 1-1.98-.82 2.783 2.783 0 0 1-.82-1.98c0-.748.291-1.451.82-1.98a2.805 2.805 0 0 1 3.42-.422l2.536-2.537-.634-.634-11.286-.007H20.1a2.04 2.04 0 0 0-1.451.602l-5.774 5.774a.684.684 0 1 1-.967-.967l5.774-5.774A3.398 3.398 0 0 1 20.1.004h.002l11.57.006c.182 0 .356.073.484.2l.833.835.844-.845a.684.684 0 1 1 .967.967l-.845.845zm-5.38 3.688l-.786.787a.681.681 0 0 1-.967 0 .684.684 0 0 1 0-.967l.79-.79a1.44 1.44 0 0 0-1.424.36 1.435 1.435 0 0 0 1.013 2.447 1.434 1.434 0 0 0 1.375-1.837z"/></g></g></g><g><g><g><path fill="#00b2ff" d="M29.204 13.77a2.69 2.69 0 0 1 .793 1.914 2.69 2.69 0 0 1-.793 1.914L16.597 30.207a2.688 2.688 0 0 1-1.914.792 2.689 2.689 0 0 1-1.914-.793L4.803 22.24a2.69 2.69 0 0 1-.793-1.914c0-.724.282-1.403.793-1.915L17.41 5.802a2.71 2.71 0 0 1 3.828 0zm-.967 2.86a1.33 1.33 0 0 0 .393-.946c0-.358-.14-.695-.393-.948L20.271 6.77a1.335 1.335 0 0 0-.947-.392c-.343 0-.686.13-.947.392L5.77 19.377a1.33 1.33 0 0 0-.393.948c0 .357.14.694.393.947l7.966 7.968c.253.253.59.392.947.392.358 0 .694-.14.947-.392z"/></g></g></g><g><g><g><path fill="#00b2ff" d="M22.288 13.677a.684.684 0 0 0-.967-.967l-.393.394c-1.051-.65-2.4-.562-3.252.29a2.48 2.48 0 0 0-.716 1.901c.034.704.337 1.375.853 1.891.55.55.61 1.384.136 1.859-.474.474-1.308.413-1.858-.137s-.611-1.384-.137-1.859a.684.684 0 0 0-.966-.967c-.853.853-.94 2.202-.29 3.253l-.468.467a.684.684 0 0 0 .967.967l.468-.467c.459.284.975.427 1.481.427.653 0 1.29-.237 1.77-.717 1.008-1.008.946-2.708-.136-3.792a1.511 1.511 0 0 1-.455-.991 1.13 1.13 0 0 1 .318-.868c.474-.474 1.307-.413 1.857.137s.612 1.384.137 1.859a.684.684 0 0 0 .967.966c.853-.852.94-2.201.29-3.252z"/></g></g></g><g><g><g><path fill="#00b2ff" d="M15.368 25.012L11.857 21.5a.684.684 0 0 0-.967.967l3.511 3.512a.682.682 0 0 0 .967 0 .684.684 0 0 0 0-.967z"/></g></g></g><g><g><g><path fill="#00b2ff" d="M9.987 19.63a.688.688 0 0 0-.483-.2.69.69 0 0 0-.484.2.69.69 0 0 0-.2.484c0 .18.073.357.2.484s.304.2.484.2a.687.687 0 0 0 .684-.684.688.688 0 0 0-.201-.484z"/></g></g></g></g></g></symbol><symbol id="icon-fb" viewBox="0 0 27 27"><g><g><g><g><g><path fill="#cdcdcd" d="M13.5 27C6.044 27 0 20.956 0 13.5 0 6.045 6.044 0 13.5 0S27 6.045 27 13.5C27 20.956 20.956 27 13.5 27zm3.384-20.276h-2.046v.01c-2.478.087-2.986 1.48-3.03 2.943h-.005v1.283h-1.688v2.517h1.688v6.747h2.542v-6.747h2.084l.402-2.517h-2.485v-.775c0-.494.33-.891.798-.891h1.74z"/></g></g></g></g></g></symbol><symbol id="icon-hat" viewBox="0 0 36 31"><g><g><g><path fill="#00b2ff" d="M18.003 9.76a.706.706 0 0 0-.703.708c0 .39.315.708.703.708a.706.706 0 0 0 .703-.708.706.706 0 0 0-.703-.708z"/></g><g><path fill="#00b2ff" d="M33.89 14.007A2.12 2.12 0 0 1 36 16.13a2.116 2.116 0 0 1-2.11 2.124H2.11A2.12 2.12 0 0 1 0 16.13c0-1.174.944-2.124 2.11-2.124h2.735C6.3 9.828 8.453 2.264 12.305.38c1.829-.894 3.578-.11 4.228 1.299A1.59 1.59 0 0 0 18 2.625a1.59 1.59 0 0 0 1.467-.947C20.14.22 21.933-.498 23.829.53c3.79 2.058 5.883 9.33 7.326 13.477zM7.316 11.174c-.357 1.037-.725 2.1-.98 2.833h23.33c-.255-.735-.625-1.8-.98-2.833h-7.872a.705.705 0 0 1-.704-.708c0-.39.315-.708.703-.708h7.38c-2.04-5.66-4.014-7.43-5.03-7.982-1.17-.634-2.083-.23-2.42.5A2.996 2.996 0 0 1 18 4.041a2.996 2.996 0 0 1-2.742-1.765c-.327-.71-1.236-1.161-2.34-.622-1.012.495-2.992 2.208-5.111 8.104h7.38c.389 0 .704.317.704.708 0 .391-.315.708-.704.708zm26.576 5.665a.706.706 0 0 0 .703-.708.706.706 0 0 0-.703-.708H2.109a.706.706 0 0 0-.703.708c0 .39.316.708.703.708z"/></g><g><path fill="#00b2ff" d="M16.593 21.09c.388 0 .703.317.703.708v.708h1.406v-.708c0-.391.315-.708.704-.708h11.25c.388 0 .703.317.703.708v2.832c0 3.514-2.84 6.373-6.328 6.373a6.315 6.315 0 0 1-5.915-4.105 2.681 2.681 0 0 0-2.233 0 6.316 6.316 0 0 1-5.915 4.105c-3.49 0-6.328-2.859-6.328-6.372v-2.833c0-.39.315-.708.703-.708zm-.703 3.54v-2.124H6.046v2.125c0 2.733 2.208 4.956 4.922 4.956 2.726 0 4.922-2.216 4.922-4.956zm4.219 0c0 2.734 2.19 4.957 4.922 4.957 2.714 0 4.922-2.223 4.922-4.956v-2.125h-9.844zm-2.813-.707v.708c0 .226-.013.451-.036.675.489-.09.99-.09 1.479 0a6.494 6.494 0 0 1-.037-.675v-.708z"/></g><g><path fill="#00b2ff" d="M10.966 26.752a2.12 2.12 0 0 1-2.11-2.124.706.706 0 0 0-.703-.708.706.706 0 0 0-.703.708c0 1.952 1.577 3.54 3.516 3.54a.706.706 0 0 0 .703-.708.706.706 0 0 0-.703-.708z"/></g><g><path fill="#00b2ff" d="M25.033 28.168c1.939 0 3.516-1.588 3.516-3.54a.706.706 0 0 0-.703-.708.706.706 0 0 0-.704.708 2.12 2.12 0 0 1-2.109 2.124.706.706 0 0 0-.703.708c0 .391.315.708.703.708z"/></g></g></g></symbol><symbol id="icon-mail" viewBox="0 0 19 14"><g><g><g><g><g><path fill="#00b2ff" d="M16.68 0c1.282 0 2.324 1.013 2.32 2.253v9.497c0 1.241-1.042 2.25-2.323 2.25H2.323C1.042 14 0 12.991 0 11.75v-9.5C0 1.009 1.042 0 2.323 0zm1.259 11.75V2.253c0-.673-.567-1.221-1.262-1.221H2.323c-.695 0-1.262.548-1.262 1.221v9.497c0 .674.567 1.222 1.262 1.222h14.358c.695 0 1.262-.548 1.262-1.222z"/></g><g><path fill="#00b2ff" d="M11.98 6.885l4.648-4.035a.505.505 0 0 0 .039-.727.546.546 0 0 0-.75-.038L9.507 7.654l-1.25-1.081c-.004-.004-.008-.008-.008-.012a.78.78 0 0 0-.086-.072L3.076 2.081a.542.542 0 0 0-.75.042.502.502 0 0 0 .043.727L7.07 6.92l-4.683 4.243a.504.504 0 0 0-.023.727.541.541 0 0 0 .75.027L7.87 7.612l1.29 1.115a.54.54 0 0 0 .707-.004l1.325-1.15 4.725 4.348c.102.095.236.14.366.14.141 0 .279-.053.385-.16a.504.504 0 0 0-.02-.726z"/></g></g></g></g></g></symbol><symbol id="icon-people" viewBox="0 0 35 35"><g><g><g><g><g><path fill="#00b2ff" d="M35 32.295v2.025a.684.684 0 0 1-.684.684H.684A.684.684 0 0 1 0 34.32v-2.025a4.464 4.464 0 0 1 3.736-4.398 3.132 3.132 0 0 1-.597-1.842v-2.23A2.564 2.564 0 0 1 5.7 21.263h3.055c.378 0 .684.306.684.684v4.108c0 .687-.222 1.323-.597 1.84.468.077.917.226 1.337.446a5.816 5.816 0 0 1 4.294-2.56l.021-.005a4.02 4.02 0 0 1-1.03-2.69v-3.03A3.24 3.24 0 0 1 16.7 16.82h4.152c.378 0 .684.306.684.684v5.582a4.02 4.02 0 0 1-1.03 2.69l.021.005a5.816 5.816 0 0 1 4.294 2.56c.42-.22.869-.37 1.336-.445a3.132 3.132 0 0 1-.596-1.841v-2.23a2.564 2.564 0 0 1 2.561-2.562h3.055c.378 0 .684.306.684.684v4.108c0 .687-.222 1.323-.597 1.842A4.464 4.464 0 0 1 35 32.295zM4.506 24.203h2.826c.408 0 .74-.332.74-.74v-.832H5.7c-.658 0-1.194.535-1.194 1.194zm0 1.368v.484c0 .983.8 1.783 1.783 1.783.983 0 1.783-.8 1.783-1.783v-.619c-.23.087-.48.135-.74.135zm1.342 3.634l.441.44.44-.44zm3.35 2.363c0-.707.127-1.384.358-2.01a3.057 3.057 0 0 0-.933-.313l-1.85 1.85a.684.684 0 0 1-.967 0l-1.85-1.849a3.095 3.095 0 0 0-2.589 3.049v1.341h7.83zm10.97-8.482v-1.222a2.603 2.603 0 0 1-1.251.319h-4.085v.904a2.672 2.672 0 0 0 2.668 2.668 2.672 2.672 0 0 0 2.669-2.668zm-1.476 4.036h-2.384l1.192 1.192zm-3.86-6.306h4.085c.69 0 1.251-.562 1.251-1.252v-1.377H16.7a1.87 1.87 0 0 0-1.868 1.869zm9.603 12.82v-2.068c0-2.25-1.68-4.113-3.85-4.405l-2.602 2.6a.682.682 0 0 1-.966 0l-2.601-2.6a4.455 4.455 0 0 0-3.8 3.739h4.4a.684.684 0 0 1 0 1.367h-4.45v1.367zm2.493-9.433h2.825c.409 0 .74-.332.74-.74v-.832h-2.37c-.66 0-1.195.535-1.195 1.194zm0 1.368v.484c0 .983.8 1.783 1.783 1.783.983 0 1.783-.8 1.783-1.783v-.619c-.23.087-.48.135-.74.135zm1.342 3.634l.44.44.442-.44zm5.363 4.431v-1.341a3.095 3.095 0 0 0-2.59-3.049l-1.849 1.85a.683.683 0 0 1-.966 0l-1.85-1.85a3.049 3.049 0 0 0-.934.312c.231.626.358 1.303.358 2.01v2.068z"/></g></g></g><g><g><g><path fill="#00b2ff" d="M20.868 4.47a.684.684 0 0 0-.967 0l-3.354 3.355-1.45-1.45a.684.684 0 1 0-.967.966l1.934 1.934a.684.684 0 0 0 .966 0l3.838-3.838a.684.684 0 0 0 0-.967z"/></g></g></g><g><g><g><path fill="#00b2ff" d="M20.294.59a.684.684 0 0 0-.557 1.248A5.51 5.51 0 0 1 23 6.865a5.508 5.508 0 0 1-5.501 5.502 5.508 5.508 0 0 1-5.502-5.502 5.515 5.515 0 0 1 3.24-5.016.684.684 0 0 0-.563-1.246 6.884 6.884 0 0 0-4.044 6.262 6.876 6.876 0 0 0 6.869 6.869 6.876 6.876 0 0 0 6.868-6.869A6.88 6.88 0 0 0 20.294.59z"/></g></g></g><g><g><g><path fill="#00b2ff" d="M17.528 0h-.024a.684.684 0 0 0 0 1.367H17.525A.684.684 0 0 0 17.528 0z"/></g></g></g><g><g><g><path fill="#00b2ff" d="M17.987 31.1a.688.688 0 0 0-.483-.2.689.689 0 0 0-.484.2.689.689 0 0 0-.2.484c0 .18.073.356.2.483a.689.689 0 0 0 .967 0 .689.689 0 0 0 .2-.483.689.689 0 0 0-.2-.484z"/></g></g></g></g></g></symbol><symbol id="icon-phone" viewBox="0 0 18 18"><g><g><g><g><g><path fill="#00b2ff" d="M16.322 13.242c.384.38.586.832.586 1.303 0 .468-.198.924-.575 1.315-.163.171-.33.334-.494.49-.24.232-.468.448-.666.688-.004.007-.011.011-.015.019-.579.627-1.317.942-2.195.942-.077 0-.16-.004-.24-.008-1.305-.083-2.473-.573-3.348-.988a17.9 17.9 0 0 1-5.962-4.66C2.04 10.692 1.12 9.154.503 7.494c-.251-.677-.579-1.71-.487-2.82.06-.687.338-1.28.825-1.766l1.294-1.303.007-.008c.38-.364.83-.558 1.294-.558.464 0 .905.194 1.274.558.248.228.487.472.716.707.114.122.236.243.354.361l1.038 1.037c.8.798.8 1.831 0 2.629-.106.106-.213.217-.32.323-.28.285-.57.581-.882.866.232.513.552 1.018 1.027 1.619.982 1.204 2.005 2.135 3.131 2.849.11.068.24.133.377.201.095.05.194.099.293.152l1.202-1.197c.384-.383.833-.585 1.301-.585.472 0 .917.205 1.286.59zm-.73.718l-2.097-2.093-.007-.007c-.118-.13-.312-.278-.548-.278-.24 0-.445.156-.575.285l-1.3 1.3c-.066.064-.263.262-.58.262a.826.826 0 0 1-.376-.095c-.015-.008-.03-.02-.046-.027-.11-.068-.24-.133-.376-.201-.152-.076-.312-.156-.468-.255-1.221-.771-2.329-1.778-3.379-3.07l-.003-.003c-.579-.733-.96-1.349-1.23-2.002l-.01-.035c-.07-.216-.13-.535.197-.862.004-.007.012-.011.02-.019.33-.296.635-.6.954-.927.11-.106.217-.216.327-.327.404-.402.404-.775 0-1.177L5.057 3.392c-.122-.126-.244-.247-.362-.369-.232-.24-.452-.463-.685-.68L4 2.332c-.122-.122-.316-.266-.555-.266-.194 0-.392.095-.579.27L1.568 3.63a1.743 1.743 0 0 0-.525 1.128c-.057.695.072 1.432.426 2.378.574 1.55 1.442 2.994 2.74 4.556a16.896 16.896 0 0 0 5.615 4.391c.787.376 1.837.817 2.967.89.057.003.118.003.175.003.594 0 1.047-.194 1.43-.604.237-.277.488-.524.735-.76.164-.16.316-.304.464-.463-.004.003-.004 0 0 0 .388-.403.388-.802-.004-1.19z"/></g><g><path fill="#00b2ff" d="M9.733 4.277a4.827 4.827 0 0 1 2.625 1.36A4.84 4.84 0 0 1 13.72 8.26a.51.51 0 0 0 .506.425c.03 0 .057-.004.087-.007a.513.513 0 0 0 .423-.593 5.857 5.857 0 0 0-1.648-3.172 5.87 5.87 0 0 0-3.176-1.645.516.516 0 0 0-.594.418.507.507 0 0 0 .415.592z"/></g><g><path fill="#00b2ff" d="M17.99 7.94a9.635 9.635 0 0 0-2.712-5.223 9.659 9.659 0 0 0-5.231-2.71.512.512 0 1 0-.168 1.011c1.773.3 3.39 1.14 4.676 2.42a8.602 8.602 0 0 1 2.423 4.67.51.51 0 0 0 .506.425c.03 0 .058-.004.088-.008a.503.503 0 0 0 .418-.585z"/></g></g></g></g></g></symbol><symbol id="icon-right-small" viewBox="0 0 8 14">
<g opacity="0.5">
<path d="M0.762966 7.35797L6.27097 12.867C6.46868 13.0647 6.78925 13.0647 6.98697 12.867C7.18468 12.6693 7.18468 12.3487 6.98697 12.151L1.83697 6.99997L6.98797 1.84997C7.17348 1.65024 7.16786 1.33957 6.97524 1.14668C6.78262 0.953786 6.47196 0.947732 6.27197 1.13297L0.762966 6.64197C0.667453 6.73662 0.613722 6.86551 0.613722 6.99997C0.613722 7.13443 0.667453 7.26332 0.762966 7.35797Z" fill="#C1C6CE"/>
</g>
</symbol><symbol id="icon-vk" viewBox="0 0 27 26"><g><g><g><g><path fill="#cdcdcd" d="M21.138 17.412c0 .236-.159.394-.713.394h-2.138c-1.188 0-1.426-.63-2.376-1.576-.872-.867-1.347-.236-1.347 1.024a.6.6 0 0 1-.158.394.607.607 0 0 1-.396.158c-1.268 0-3.09.157-4.91-1.734-1.823-1.97-3.803-5.83-3.803-6.223 0-.237.238-.316.555-.316h2.06c.395 0 .712.237.791.63.713 1.498 2.297 4.413 2.693 2.758.238-.945.317-3.151-.713-3.309-.554-.079.475-.709 1.98-.709.396 0 .792.079 1.188.158.238 0 .475.157.634.315.158.157.237.394.158.63 0 1.891-.237 3.073.238 3.388.475.315 1.742-1.655 2.376-3.152.158-.393.238-.709.713-.709h2.614c1.425 0-.159 1.891-1.347 3.388-.95 1.182-.871 1.182.238 2.206.792.71 1.742 1.733 1.663 2.285zM.07 13c0 7.17 5.94 12.92 13.385 13 7.366.078 13.465-5.595 13.544-12.764C27.079 6.067 21.217.158 13.851.001 6.327-.078.15 5.75.07 13z"/></g></g></g></g></symbol></svg>